<?xml version="1.0" encoding="utf-8"?>
<!-- Generator: Adobe Illustrator 22.1.0, SVG Export Plug-In . SVG Version: 6.00 Build 0)  -->
<svg version="1.1" id="Layer_1" xmlns="http://www.w3.org/2000/svg" xmlns:xlink="http://www.w3.org/1999/xlink" x="0px" y="0px"
	 viewBox="0 0 439.6 438.7" style="enable-background:new 0 0 439.6 438.7;" xml:space="preserve">
<style type="text/css">
	.st0{fill:#231F20;}
	.st1{fill:#FFFFFF;}
</style>
<title></title>
<g>
	<title>Layer 1</title>
	<g id="layer1">
		<path id="path5036" class="st0" d="M387.1,438.7c29.1,0,52.5-23.5,52.5-52.5V52.4c0-28.9-23.4-52.4-52.5-52.4H52.6
			C23.5,0,0,23.4,0,52.4v333.8c0,29,23.5,52.5,52.6,52.5H387.1z"/>
		<path id="path5038" class="st1" d="M52.6,8.9C28.5,8.9,8.9,28.4,8.9,52.4v333.8c0,24,19.6,43.6,43.7,43.6h334.6
			c24,0,43.6-19.6,43.6-43.6V52.4c0-24-19.6-43.5-43.6-43.5L52.6,8.9L52.6,8.9z"/>
		<path id="path5040" class="st0" d="M219.7,282c-3.7,1.4-7.9,2.2-12.2,2.2c-4.6,0-9.1-0.5-13.3-1.7L147,390.8
			c-4.3,10-16.2,13.4-26.6,7.5c-10.3-5.8-15.2-18.6-10.8-28.5l57.9-132.5h73.9v-12.4l37.4-17.4c9.8-4.7,22.5,3.4,25.1,13.7
			l18.3,73.3c2.6,10.4-3.7,20.9-14.1,23.5c-10.5,2.6-21-3.7-23.6-14.1l-11.7-46.7L219.7,282z"/>
		<path id="path5042" class="st0" d="M253.8,206.1c80.9-40,112.3-177.2,112.3-188.7h-11.1C350.8,46,316,160.5,253.8,193.7V206.1z"/>
		<path id="path5044" class="st0" d="M104.5,176.1c4.2,6.6,12.8,9.5,20.3,6.4l42.8-16.7V225h73.9v-68.6l66.2-105.7
			c4.8-7.7,2.6-17.9-5.2-22.9c-7.7-4.8-18-2.6-22.3,5l-56.2,89.8l-33.9,0.1c-2.2,0-4.4,0.4-6.5,1.2L125,146.8l-30.2-45.6
			c-4.9-7.6-15.2-9.9-23-5c-7.7,5-10,15.3-5,23L104.5,176.1z"/>
		<path id="path5046" class="st0" d="M199.4,116.6c16.3,0,29.5-13.1,29.5-29.3s-13.2-29.4-29.5-29.4c-16.2,0-29.5,13.2-29.5,29.4
			S183.2,116.6,199.4,116.6"/>
		<path id="path5048" class="st0" d="M241.4,416.4V284.2L229,290v126.4H241.4z"/>
	</g>
</g>
</svg>
