<?xml version="1.0"?><svg width="480" height="480" xmlns="http://www.w3.org/2000/svg">
 <title/>
 <g>
  <title>Layer 1</title>
  <g id="layer1">
   <path fill="#231f20" fill-rule="nonzero" id="path5036" d="m399.822571,441.594849c29.051208,0 52.496796,-23.48172 52.496796,-52.467712l0,-333.8489c0,-28.941559 -23.445587,-52.378906 -52.496796,-52.378906l-334.556137,0c-29.051216,0 -52.585808,23.437347 -52.585808,52.378906l0,333.8489c0,28.985992 23.534592,52.467712 52.585808,52.467712l334.556137,0z"/>
   <path fill="#ffffff" fill-rule="nonzero" id="path5038" d="m65.266434,11.777111c-24.068459,0 -43.688042,19.531116 -43.688042,43.501125l0,333.8489c0,24.014404 19.619583,43.589935 43.688042,43.589935l334.556137,0c24.023926,0 43.59903,-19.575531 43.59903,-43.589935l0,-333.8489c0,-23.970009 -19.575104,-43.501125 -43.59903,-43.501125l-334.556137,0z"/>
   <path fill="#231f20" fill-rule="nonzero" id="path5040" d="m232.411011,284.946411c-3.737061,1.376038 -7.919006,2.175049 -12.189941,2.175049c-4.582336,0 -9.120209,-0.532654 -13.302155,-1.73114l-47.247162,108.353302c-4.315399,9.987518 -16.193939,13.361053 -26.55983,7.546112c-10.321411,-5.814941 -15.215187,-18.554596 -10.766304,-28.542084l57.924477,-132.545242l73.851486,0l0,-12.384506l37.370605,-17.356079c9.787567,-4.749588 22.511353,3.373566 25.091736,13.716171l18.329407,73.33049c2.624817,10.386993 -3.737061,20.907166 -14.147461,23.48172c-10.454895,2.618927 -21.043243,-3.728668 -23.623566,-14.115662l-11.656097,-46.741516l-53.075195,24.813385z"/>
   <path fill="#231f20" fill-rule="nonzero" id="path5042" d="m266.445007,208.997009c80.925171,-40.038788 112.289825,-177.200504 112.289825,-188.652843l-11.122223,0c-4.181946,28.58646 -38.927734,143.065441 -101.167603,176.268337l0,12.384506z"/>
   <path fill="#231f20" fill-rule="nonzero" id="path5044" d="m117.140427,178.990112c4.22644,6.613953 12.768295,9.543594 20.33139,6.436371l42.798279,-16.734604l0,59.214798l73.851486,0l0,-68.580856l66.199402,-105.689976c4.849274,-7.723667 2.624847,-17.933113 -5.2052,-22.904671c-7.741058,-4.83839 -17.97348,-2.574551 -22.333405,4.971558l-56.233887,89.798748l-33.856018,0.088776c-2.179962,0 -4.359894,0.355118 -6.539856,1.198509l-58.502838,22.904655l-30.163429,-45.587402c-4.938271,-7.63488 -15.215187,-9.898712 -22.956245,-4.971558c-7.741058,4.971558 -9.965508,15.269791 -5.027237,22.993469l37.637558,56.862183z"/>
   <path fill="#231f20" fill-rule="nonzero" id="path5046" d="m212.1241,119.50898c16.282913,0 29.496109,-13.094734 29.496109,-29.296684c0,-16.201942 -13.213196,-29.385445 -29.496109,-29.385445c-16.238419,0 -29.451599,13.183502 -29.451599,29.385445c0,16.20195 13.213181,29.296684 29.451599,29.296684"/>
   <path fill="#231f20" fill-rule="nonzero" id="path5048" d="m254.121582,419.311615l0,-132.190155l-12.412384,5.770569l0,126.419586l12.412384,0z"/>
  </g>
 </g>
</svg>